name C:/MyDriveSym/Projects/mobilecap/Data\Session20210816_0002\mocap\ForceDataProcessed\walking2_forces.mot
datacolumns 19
datarows 29
range 1.01950000 1.03350000
endheader 
time	R_ground_force_vx	R_ground_force_vy	R_ground_force_vz	R_ground_force_px	R_ground_force_py	R_ground_force_pz	R_ground_torque_x	R_ground_torque_y	R_ground_torque_z	L_ground_force_vx	L_ground_force_vy	L_ground_force_vz	L_ground_force_px	L_ground_force_py	L_ground_force_pz	L_ground_torque_x	L_ground_torque_y	L_ground_torque_z	
          1.01950000	          0.00000000	          0.00000000	          0.00000000	          1.29502100	          0.00000000	         -0.17803200	          0.00000000	          0.00000000	          0.00000000	         28.33586000	        630.44149000	         11.47862900	          0.96534300	          0.00600000	         -0.25290600	          0.00000000	          3.64381500	          0.00000000	
          1.02000000	          0.00000000	          0.00000000	          0.00000000	          1.29655300	          0.00000000	         -0.17802400	          0.00000000	          0.00000000	          0.00000000	         28.65639700	        630.81627400	         11.48869600	          0.96544800	          0.00600000	         -0.25289800	          0.00000000	          3.64362000	          0.00000000	
          1.02050000	          0.00000000	          0.00000000	          0.00000000	          1.29808500	          0.00000000	         -0.17801600	          0.00000000	          0.00000000	          0.00000000	         28.97789400	        631.18892300	         11.49823800	          0.96555300	          0.00600000	         -0.25289100	          0.00000000	          3.64333900	          0.00000000	
          1.02100000	          0.00000000	          0.00000000	          0.00000000	          1.29961700	          0.00000000	         -0.17800700	          0.00000000	          0.00000000	          0.00000000	         29.30034600	        631.55936900	         11.50724600	          0.96565700	          0.00600000	         -0.25288300	          0.00000000	          3.64297300	          0.00000000	
          1.02150000	          0.00000000	          0.00000000	          0.00000000	          1.30114900	          0.00000000	         -0.17799900	          0.00000000	          0.00000000	          0.00000000	         29.62374700	        631.92754300	         11.51571000	          0.96576100	          0.00600000	         -0.25287500	          0.00000000	          3.64252100	          0.00000000	
          1.02200000	          0.00000000	          0.00000000	          0.00000000	          1.30268100	          0.00000000	         -0.17799100	          0.00000000	          0.00000000	          0.00000000	         29.94809100	        632.29337400	         11.52362300	          0.96586400	          0.00600000	         -0.25286700	          0.00000000	          3.64198500	          0.00000000	
          1.02250000	          0.00000000	          0.00000000	          0.00000000	          1.30421300	          0.00000000	         -0.17798300	          0.00000000	          0.00000000	          0.00000000	         30.27337300	        632.65679300	         11.53097600	          0.96596800	          0.00600000	         -0.25286000	          0.00000000	          3.64136400	          0.00000000	
          1.02300000	          0.00000000	          0.00000000	          0.00000000	          1.30574500	          0.00000000	         -0.17797500	          0.00000000	          0.00000000	          0.00000000	         30.59958700	        633.01772900	         11.53776100	          0.96607000	          0.00600000	         -0.25285200	          0.00000000	          3.64065800	          0.00000000	
          1.02350000	          0.00000000	          0.00000000	          0.00000000	          1.30727700	          0.00000000	         -0.17796600	          0.00000000	          0.00000000	          0.00000000	         30.92672700	        633.37611300	         11.54396800	          0.96617300	          0.00600000	         -0.25284400	          0.00000000	          3.63986900	          0.00000000	
          1.02400000	          0.00000000	          0.00000000	          0.00000000	          1.30880900	          0.00000000	         -0.17795800	          0.00000000	          0.00000000	          0.00000000	         31.25478700	        633.73187300	         11.54959000	          0.96627500	          0.00600000	         -0.25283700	          0.00000000	          3.63899600	          0.00000000	
          1.02450000	          0.00000000	          0.00000000	          0.00000000	          1.31034100	          0.00000000	         -0.17795000	          0.00000000	          0.00000000	          0.00000000	         31.58375900	        634.08493800	         11.55461900	          0.96637600	          0.00600000	         -0.25282900	          0.00000000	          3.63804000	          0.00000000	
          1.02500000	          0.00000000	          0.00000000	          0.00000000	          1.31187300	          0.00000000	         -0.17794200	          0.00000000	          0.00000000	          0.00000000	         31.91363800	        634.43523600	         11.55904600	          0.96647800	          0.00600000	         -0.25282100	          0.00000000	          3.63700200	          0.00000000	
          1.02550000	          0.00000000	          0.00000000	          0.00000000	          1.31340500	          0.00000000	         -0.17793300	          0.00000000	          0.00000000	          0.00000000	         32.24441600	        634.78269500	         11.56286200	          0.96657900	          0.00600000	         -0.25281300	          0.00000000	          3.63588100	          0.00000000	
          1.02600000	          0.00000000	          0.00000000	          0.00000000	          1.31493700	          0.00000000	         -0.17792500	          0.00000000	          0.00000000	          0.00000000	         32.57608600	        635.12724200	         11.56606000	          0.96667900	          0.00600000	         -0.25280600	          0.00000000	          3.63467900	          0.00000000	
          1.02650000	          0.00000000	          0.00000000	          0.00000000	          1.31646900	          0.00000000	         -0.17791700	          0.00000000	          0.00000000	          0.00000000	         32.90864100	        635.46880600	         11.56863200	          0.96677900	          0.00600000	         -0.25279800	          0.00000000	          3.63339400	          0.00000000	
          1.02700000	          0.00000000	          0.00000000	          0.00000000	          1.31800100	          0.00000000	         -0.17790900	          0.00000000	          0.00000000	          0.00000000	         33.24207400	        635.80731300	         11.57056900	          0.96687900	          0.00600000	         -0.25279000	          0.00000000	          3.63202900	          0.00000000	
          1.02750000	          0.00000000	          0.00000000	          0.00000000	          1.31953300	          0.00000000	         -0.17790100	          0.00000000	          0.00000000	          0.00000000	         33.57637600	        636.14268900	         11.57186300	          0.96697900	          0.00600000	         -0.25278300	          0.00000000	          3.63058300	          0.00000000	
          1.02800000	          0.00000000	          0.00000000	          0.00000000	          1.32106500	          0.00000000	         -0.17789200	          0.00000000	          0.00000000	          0.00000000	         33.91154000	        636.47486100	         11.57250700	          0.96707800	          0.00600000	         -0.25277500	          0.00000000	          3.62905700	          0.00000000	
          1.02850000	          0.00000000	          0.00000000	          0.00000000	          1.32259700	          0.00000000	         -0.17788400	          0.00000000	          0.00000000	          0.00000000	         34.24755700	        636.80375500	         11.57249200	          0.96717700	          0.00600000	         -0.25276700	          0.00000000	          3.62745000	          0.00000000	
          1.02900000	          0.00000000	          0.00000000	          0.00000000	          1.32412800	          0.00000000	         -0.17787600	          0.00000000	          0.00000000	          0.00000000	         34.58442000	        637.12929700	         11.57181100	          0.96727500	          0.00600000	         -0.25276000	          0.00000000	          3.62576500	          0.00000000	
          1.02950000	          0.00000000	          0.00000000	          0.00000000	          1.32566000	          0.00000000	         -0.17786800	          0.00000000	          0.00000000	          0.00000000	         34.92211900	        637.45141200	         11.57045500	          0.96737400	          0.00600000	         -0.25275200	          0.00000000	          3.62400000	          0.00000000	
          1.03000000	          0.00000000	          0.00000000	          0.00000000	          1.32719200	          0.00000000	         -0.17786000	          0.00000000	          0.00000000	          0.00000000	         35.26064700	        637.77002400	         11.56841800	          0.96747100	          0.00600000	         -0.25274400	          0.00000000	          3.62215600	          0.00000000	
          1.03050000	          0.00000000	          0.00000000	          0.00000000	          1.32872400	          0.00000000	         -0.17785100	          0.00000000	          0.00000000	          0.00000000	         35.59999200	        638.08506000	         11.56569000	          0.96756900	          0.00600000	         -0.25273700	          0.00000000	          3.62023400	          0.00000000	
          1.03100000	          0.00000000	          0.00000000	          0.00000000	          1.33025600	          0.00000000	         -0.17784300	          0.00000000	          0.00000000	          0.00000000	         35.94014700	        638.39644200	         11.56226600	          0.96766600	          0.00600000	         -0.25272900	          0.00000000	          3.61823400	          0.00000000	
          1.03150000	          0.00000000	          0.00000000	          0.00000000	          1.33178800	          0.00000000	         -0.17783500	          0.00000000	          0.00000000	          0.00000000	         36.28110300	        638.70409700	         11.55813700	          0.96776300	          0.00600000	         -0.25272200	          0.00000000	          3.61615700	          0.00000000	
          1.03200000	          0.00000000	          0.00000000	          0.00000000	          1.33332000	          0.00000000	         -0.17782700	          0.00000000	          0.00000000	          0.00000000	         36.62284800	        639.00794700	         11.55329600	          0.96786000	          0.00600000	         -0.25271400	          0.00000000	          3.61400200	          0.00000000	
          1.03250000	          0.00000000	          0.00000000	          0.00000000	          1.33485200	          0.00000000	         -0.17781900	          0.00000000	          0.00000000	          0.00000000	         36.96537300	        639.30791500	         11.54773600	          0.96795600	          0.00600000	         -0.25270600	          0.00000000	          3.61177100	          0.00000000	
          1.03300000	          0.00000000	          0.00000000	          0.00000000	          1.33638400	          0.00000000	         -0.17781000	          0.00000000	          0.00000000	          0.00000000	         37.30866900	        639.60392700	         11.54144800	          0.96805200	          0.00600000	         -0.25269900	          0.00000000	          3.60946300	          0.00000000	
          1.03350000	          0.00000000	          0.00000000	          0.00000000	          1.33791600	          0.00000000	         -0.17780200	          0.00000000	          0.00000000	          0.00000000	         37.65272400	        639.89590400	         11.53442700	          0.96814700	          0.00600000	         -0.25269100	          0.00000000	          3.60708000	          0.00000000	
